# xmcd
#
# Track frame offsets: 
#        150
#        15057
#        39205
#        58655
#        84405
#        101702
#        120692
#        144722
#        162715
#        185415
#        204742
#        222347
#        239232
#        258197
#        279112
#        292932
#        319885
#
# Disc length: 4575 seconds
#
# Revision: 18
# Processed by: cddbd v1.5.2PL0 Copyright (c) Steve Scherf et al.
# Submitted via: ExactAudioCopy v1.0b3
#
DISCID=f611dd11
DTITLE=Various Artist - One Night Only (Greatist Hits Live)
DYEAR=2000
DGENRE=Rock
TTITLE0=Elton John - Goodbye Yellow Brick Road(One Night Only The Grea
TTITLE0=test Hits US CD Version)
TTITLE1=Elton John - Philadelphia Freedom(One Night Only The Greatest 
TTITLE1=Hits US CD Version)
TTITLE2=Elton John And Kiki Dee - Don't Go Breaking My Heart(One Night
TTITLE2=Only The Greatest Hits US CD Version)
TTITLE3=Elton John - Rocket Man(One Night Only The Greatest Hits US CD
TTITLE3=Version)
TTITLE4=Elton John - Daniel(One Night Only The Greatest Hits US CD Ver
TTITLE4=sion)
TTITLE5=Elton John - Crocodile Rock(One Night Only The Greatest Hits U
TTITLE5=S CD Version)
TTITLE6=Elton John - Sacrifice(One Night Only The Greatest Hits US CD 
TTITLE6=Version)
TTITLE7=Elton John - Can You Feel The Love Tonight?(One Night Only The
TTITLE7=Greatest Hits US CD Version)
TTITLE8=Elton John - Bennie And The Jets(One Night Only The Greatest H
TTITLE8=its US CD Version)
TTITLE9=Elton John And Ronan Keating - Your Song(One Night Only The Gr
TTITLE9=eatest Hits US CD Version)
TTITLE10=Elton John And Bryan Adams - Sad Songs(One Night Only The Gre
TTITLE10=atest Hits US CD Version)
TTITLE11=Elton John - Candle In The Wind(One Night Only The Greatest H
TTITLE11=its US CD Version)
TTITLE12=Elton John - The Bitch Is Back(One Night Only The Greatest Hi
TTITLE12=ts US CD Version)
TTITLE13=Elton John And Anastacia - Saturday Night's Alright For Fight
TTITLE13=ing(One Night Only The Greatest Hits US CD Version)
TTITLE14=Elton John - I'm Still Standing(One Night Only The Greatest H
TTITLE14=its US CD Version)
TTITLE15=Elton John - Don't Let The Sun Go Down On Me(One Night Only T
TTITLE15=he Greatest Hits US CD Version)
TTITLE16=Elton John And Mary J. Blige - I Guess That's Why They Call I
TTITLE16=t The Blues(One Night Only The Greatest Hits US CD Version)
EXTD=d 21st, 2000 YEAR: 2000
EXTT0=
EXTT1=
EXTT2=
EXTT3=
EXTT4=
EXTT5=
EXTT6=
EXTT7=
EXTT8=
EXTT9=
EXTT10=
EXTT11=
EXTT12=
EXTT13=
EXTT14=
EXTT15=
EXTT16=
PLAYORDER=
